<svg xmlns="http://www.w3.org/2000/svg" width="25.08" height="23.455" viewBox="0 0 25.08 23.455">
  <path id="Logo" d="M22.776,22.64A3.42,3.42,0,0,0,18.9,19.164c-4.835.372-5.457,5.882-2.31,6.232,3.29.37,4.469-3.117,4.532-3.313h0c.008.237.182,5.032-4.7,5.032a3.8,3.8,0,0,1-3.844-3.876c0-2.668,2.591-5.322,6.245-5.462a5.479,5.479,0,0,1,4.452,1.465c2.153,2.157,1.534,6.2-.209,8.2A8.523,8.523,0,0,1,12.8,29.788C9.172,28.16,7.875,23.448,10.07,19.5a10.228,10.228,0,0,1,8.78-4.682c6.4,0,9.642,4.544,9.059,9.885a15.047,15.047,0,0,1-4.078,8.3c-5.05,5.5-12.473,6.6-17.151,3.735a7.815,7.815,0,0,1-3.739-7.6,7.819,7.819,0,0,0,3.345,5.614,11.307,11.307,0,0,0,14.835-2.119c-4.642,3.476-10.069,3.424-13.775,1C3.946,31.427,3.013,27,4.676,22.615c-.834,3.906.507,7.529,3.455,9.416,4.6,2.941,11.292,1.25,15.512-3.487a8.8,8.8,0,0,0,2.236-5.78c-.044-3.313-2.349-6.287-7-6.287s-8.056,3.7-8.056,6.778a5.075,5.075,0,0,0,5.394,5.369c3.053,0,6.559-1.909,6.559-5.984Z" transform="translate(-2.896 -14.821)"/>
</svg>
